HIERARCHY
ROOT Pelvis
{
	OFFSET 0.000000 0.000000 0.000000
	CHANNELS 6 Xposition Yposition Zposition Xrotation Yrotation Zrotation
	JOINT LeftUpLeg_virtual
	{
		OFFSET 0.000000 0.000000 0.000000
		CHANNELS 3 Xrotation Yrotation Zrotation
		JOINT LeftUpLeg
		{
			OFFSET 18.735201 -5.666702 -4.541200
			CHANNELS 3 Xrotation Yrotation Zrotation
			JOINT LeftLeg
			{
				OFFSET -0.021200 -31.938179 0.493100
				CHANNELS 3 Xrotation Yrotation Zrotation
				JOINT LeftFoot
				{
					OFFSET 0.021200 -31.938179 -4.336299
					CHANNELS 3 Xrotation Yrotation Zrotation
					JOINT LeftToeBase
					{
						OFFSET 0.943001 -26.722000 15.023500
						CHANNELS 3 Xrotation Yrotation Zrotation
						End Site
						{
							OFFSET 0 0 0
						}
					}
				}
			}
		}
	}
	JOINT RightUpLeg_virtual
	{
		OFFSET 0.000000 0.000000 0.000000
		CHANNELS 3 Xrotation Yrotation Zrotation
		JOINT RightUpLeg
		{
			OFFSET -18.735201 -5.666702 -4.541200
			CHANNELS 3 Xrotation Yrotation Zrotation
			JOINT RightLeg
			{
				OFFSET 0.018946 -31.938133 0.493100
				CHANNELS 3 Xrotation Yrotation Zrotation
				JOINT RightFoot
				{
					OFFSET -0.018946 -31.938126 -4.336299
					CHANNELS 3 Xrotation Yrotation Zrotation
					JOINT RightToeBase
					{
						OFFSET -0.943001 -26.722004 15.023500
						CHANNELS 3 Xrotation Yrotation Zrotation
						End Site
						{
							OFFSET 0 0 0
						}
					}
				}
			}
		}
	}
	JOINT Hips_virtual
	{
		OFFSET 0.000000 0.000000 0.000000
		CHANNELS 3 Xrotation Yrotation Zrotation
		JOINT Hips
		{
			OFFSET -0.000000 -0.000000 -0.000000
			CHANNELS 3 Xrotation Yrotation Zrotation
			JOINT Spine
			{
				OFFSET 0.000000 10.199997 -0.299500
				CHANNELS 3 Xrotation Yrotation Zrotation
				JOINT Spine1
				{
					OFFSET 0.000000 11.900002 -1.516600
					CHANNELS 3 Xrotation Yrotation Zrotation
					JOINT Spine2
					{
						OFFSET 0.000000 13.600006 -2.842500
						CHANNELS 3 Xrotation Yrotation Zrotation
						JOINT Neck_virtual
						{
							OFFSET 0.000000 0.000000 0.000000
							CHANNELS 3 Xrotation Yrotation Zrotation
							JOINT Neck
							{
								OFFSET 0.000000 9.624100 -2.890100
								CHANNELS 3 Xrotation Yrotation Zrotation
								JOINT Head
								{
									OFFSET 0.000000 14.068802 -1.351900
									CHANNELS 3 Xrotation Yrotation Zrotation
									End Site
									{
										OFFSET 0 0 0
									}
								}
							}
						}
						JOINT LeftShoulder_virtual
						{
							OFFSET 0.000000 0.000000 0.000000
							CHANNELS 3 Xrotation Yrotation Zrotation
							JOINT LeftShoulder
							{
								OFFSET 15.263000 10.923401 -0.547700
								CHANNELS 3 Xrotation Yrotation Zrotation
								JOINT LeftArm
								{
									OFFSET 25.438599 -2.830597 -13.032500
									CHANNELS 3 Xrotation Yrotation Zrotation
									JOINT LeftForeArm
									{
										OFFSET 29.960503 0.000000 0.000000
										CHANNELS 3 Xrotation Yrotation Zrotation
										JOINT LeftHand
										{
											OFFSET 27.849251 0.000000 0.000000
											CHANNELS 3 Xrotation Yrotation Zrotation
											End Site
											{
												OFFSET 0 0 0
											}
										}
									}
								}
							}
						}
						JOINT RightShoulder_virtual
						{
							OFFSET 0.000000 0.000000 0.000000
							CHANNELS 3 Xrotation Yrotation Zrotation
							JOINT RightShoulder
							{
								OFFSET -15.263000 10.923401 -0.547700
								CHANNELS 3 Xrotation Yrotation Zrotation
								JOINT RightArm
								{
									OFFSET -25.438599 -2.830597 -13.032500
									CHANNELS 3 Xrotation Yrotation Zrotation
									JOINT RightForeArm
									{
										OFFSET -29.960503 0.000000 0.000000
										CHANNELS 3 Xrotation Yrotation Zrotation
										JOINT RightHand
										{
											OFFSET -27.849251 0.000000 0.000000
											CHANNELS 3 Xrotation Yrotation Zrotation
											End Site
											{
												OFFSET 0 0 0
											}
										}
									}
								}
							}
						}
					}
				}
			}
		}
	}
}
MOTION
Frames: 12
Frame Time: 0.03333333
-0.737943 90.301186 46.643753 0.000000 0.000000 0.000000 12.890165 -13.842680 3.656590 -25.999434 7.911604 18.932139 35.413848 1.363264 -3.596485 -14.112884 3.484635 -10.323962 0.000000 0.000000 0.000000 3.688990 3.536751 1.277922 -26.540852 -3.881265 -13.648396 38.285871 -2.444218 -1.142101 -12.725539 -5.220747 7.116974 0.000000 0.000000 0.000000 4.470200 -1.850484 0.698106 1.707788 1.116814 -4.165408 5.795492 -0.310661 -0.996894 3.154586 -0.369894 -0.473040 0.000000 0.000000 0.000000 6.333313 -0.675995 0.205258 2.167551 -0.049297 0.879048 0.000000 0.000000 0.000000 5.370598 -0.058560 2.924973 2.815279 -7.301537 17.439350 -47.551856 -40.722127 -33.879647 2.426308 -81.870855 6.242665 0.000000 0.000000 0.000000 1.831323 -2.806590 -1.306536 1.127541 -3.971218 -9.054768 -29.941780 50.559256 22.930571 -172.594017 80.298518 169.152285 0.000000 0.000000 0.000000 
-0.804691 90.867294 47.140976 0.000000 0.000000 0.000000 13.225254 -13.504751 3.436508 -25.352373 8.139321 18.637879 34.534440 1.470233 -3.591534 -14.623114 3.616504 -10.270326 0.000000 0.000000 0.000000 4.292274 3.492567 1.323292 -25.657664 -4.014313 -13.555736 37.312879 -2.600900 -1.223404 -13.328294 -5.381868 6.845999 0.000000 0.000000 0.000000 4.433003 -1.915985 0.703074 1.764419 1.265947 -4.198396 5.424043 -0.306592 -1.037609 2.943758 -0.367075 -0.491093 0.000000 0.000000 0.000000 6.037975 -0.683045 0.220056 2.027604 -0.046523 0.879706 0.000000 0.000000 0.000000 5.142787 -0.062558 2.923671 2.699510 -7.211440 17.427414 -47.549035 -40.628076 -34.201858 2.007184 -81.865637 5.709857 0.000000 0.000000 0.000000 1.533365 -2.804499 -1.337746 0.947539 -3.890666 -9.096431 -29.704090 50.588445 22.968553 -172.757655 80.310867 169.371384 0.000000 0.000000 0.000000 
-0.871330 91.365425 47.589027 0.000000 0.000000 0.000000 13.526134 -13.203463 3.234298 -24.772782 8.343084 18.368371 33.748849 1.561471 -3.594641 -15.071717 3.735653 -10.239082 0.000000 0.000000 0.000000 4.849802 3.467759 1.376442 -24.834551 -4.134437 -13.457430 36.418149 -2.762907 -1.305337 -13.885517 -5.544051 6.573593 0.000000 0.000000 0.000000 4.382033 -1.979029 0.710552 1.798019 1.439450 -4.220639 5.077225 -0.302371 -1.072606 2.743287 -0.364615 -0.504494 0.000000 0.000000 0.000000 5.750776 -0.692350 0.238660 1.888821 -0.043505 0.881512 0.000000 0.000000 0.000000 4.930610 -0.063949 2.925575 2.589085 -7.097046 17.408846 -47.491856 -40.608637 -34.504244 1.809061 -81.925496 5.397439 0.000000 0.000000 0.000000 1.248974 -2.800404 -1.370975 0.772690 -3.816953 -9.136691 -29.460552 50.574050 23.021602 -172.933573 80.317021 169.599813 0.000000 0.000000 0.000000 
-0.932273 91.791237 48.004257 0.000000 0.000000 0.000000 13.788176 -12.932731 3.046579 -24.267228 8.524794 18.122317 33.052528 1.644148 -3.605574 -15.465812 3.847802 -10.223952 0.000000 0.000000 0.000000 5.333442 3.437262 1.424673 -24.114273 -4.240905 -13.369166 35.605158 -2.919589 -1.385425 -14.396010 -5.698133 6.311391 0.000000 0.000000 0.000000 4.317743 -2.036030 0.720979 1.801138 1.636356 -4.220716 4.759187 -0.298966 -1.103573 2.555029 -0.362758 -0.513978 0.000000 0.000000 0.000000 5.482367 -0.703880 0.257475 1.756401 -0.040138 0.882418 0.000000 0.000000 0.000000 4.736819 -0.060205 2.929874 2.483373 -6.946816 17.378020 -47.359876 -40.650410 -34.782510 1.842184 -82.038611 5.310545 0.000000 0.000000 0.000000 0.981718 -2.795130 -1.406546 0.604865 -3.751446 -9.179189 -29.213334 50.515925 23.104061 -173.117319 80.309979 169.836410 0.000000 0.000000 0.000000 
-0.971565 92.153229 48.382530 0.000000 0.000000 0.000000 14.015272 -12.687922 2.876830 -23.828648 8.685762 17.903066 32.459613 1.720323 -3.621864 -15.795197 3.952195 -10.219968 0.000000 0.000000 0.000000 5.761611 3.415388 1.465669 -23.472867 -4.333870 -13.291729 34.911043 -3.064254 -1.457770 -14.830781 -5.838542 6.074048 0.000000 0.000000 0.000000 4.240060 -2.094740 0.733675 1.762965 1.829338 -4.207928 4.472550 -0.299581 -1.132475 2.380350 -0.362921 -0.520658 0.000000 0.000000 0.000000 5.240367 -0.718820 0.274278 1.634205 -0.037141 0.881134 0.000000 0.000000 0.000000 4.562975 -0.049838 2.934713 2.381592 -6.754936 17.326201 -47.143359 -40.742567 -35.038133 2.105304 -82.193199 5.444173 0.000000 0.000000 0.000000 0.732028 -2.790331 -1.443538 0.443311 -3.697960 -9.221849 -28.958711 50.406291 23.241020 -173.286680 80.288088 170.067571 0.000000 0.000000 0.000000 
-1.003378 92.455132 48.730324 0.000000 0.000000 0.000000 14.209337 -12.496336 2.733598 -23.457165 8.817982 17.715217 31.977283 1.783993 -3.642486 -16.051984 4.042627 -10.228797 0.000000 0.000000 0.000000 6.146092 3.409699 1.496351 -22.894292 -4.412492 -13.227575 34.363385 -3.190712 -1.520531 -15.170707 -5.958591 5.869247 0.000000 0.000000 0.000000 4.155515 -2.150757 0.748340 1.711174 2.035464 -4.184240 4.221271 -0.303762 -1.159439 2.221232 -0.364656 -0.524525 0.000000 0.000000 0.000000 5.028280 -0.736771 0.289154 1.524232 -0.034490 0.877801 0.000000 0.000000 0.000000 4.411188 -0.032411 2.938741 2.284601 -6.519884 17.247476 -46.835949 -40.872166 -35.275345 2.601757 -82.379929 5.797990 0.000000 0.000000 0.000000 0.499820 -2.786479 -1.479596 0.287829 -3.655814 -9.255921 -28.675135 50.240744 23.450258 -173.430073 80.253090 170.293569 0.000000 0.000000 0.000000 
-1.021218 92.701103 49.022720 0.000000 0.000000 0.000000 14.359527 -12.347922 2.616398 -23.165290 8.921389 17.561395 31.593791 1.831699 -3.663006 -16.243433 4.114005 -10.245496 0.000000 0.000000 0.000000 6.461831 3.410638 1.515657 -22.411082 -4.474211 -13.178170 33.942584 -3.301116 -1.571658 -15.425000 -6.062522 5.697929 0.000000 0.000000 0.000000 4.066371 -2.213339 0.765818 1.649663 2.242400 -4.144199 4.004207 -0.313573 -1.187678 2.076749 -0.368612 -0.527355 0.000000 0.000000 0.000000 4.847192 -0.757634 0.299915 1.427019 -0.032256 0.871275 0.000000 0.000000 0.000000 4.281486 -0.007781 2.940304 2.192276 -6.241636 17.134919 -46.428330 -41.018930 -35.506312 3.319461 -82.586085 6.352872 0.000000 0.000000 0.000000 0.286059 -2.783445 -1.514164 0.139657 -3.620853 -9.281032 -28.337089 50.023865 23.743860 -173.545749 80.206502 170.523951 0.000000 0.000000 0.000000 
-1.033349 92.894371 49.251324 0.000000 0.000000 0.000000 14.473065 -12.236043 2.528825 -22.944945 8.998875 17.446200 31.320714 1.858992 -3.682047 -16.366349 4.160603 -10.270775 0.000000 0.000000 0.000000 6.703871 3.420383 1.525446 -22.033757 -4.517921 -13.142972 33.640160 -3.400368 -1.612103 -15.598161 -6.155076 5.554875 0.000000 0.000000 0.000000 3.978503 -2.282070 0.786288 1.587847 2.443748 -4.095215 3.820097 -0.328317 -1.217025 1.946257 -0.374456 -0.529293 0.000000 0.000000 0.000000 4.701084 -0.780942 0.305645 1.345051 -0.030544 0.861159 0.000000 0.000000 0.000000 4.173141 0.023066 2.938957 2.106014 -5.926756 16.987650 -45.906562 -41.168320 -35.734617 4.257272 -82.793907 7.101640 0.000000 0.000000 0.000000 0.090655 -2.780412 -1.545548 -0.000298 -3.588527 -9.290177 -27.926331 49.754540 24.126537 -173.620239 80.165206 170.752830 0.000000 0.000000 0.000000 
-1.038034 93.038506 49.389366 0.000000 0.000000 0.000000 14.549136 -12.159108 2.466570 -22.793229 9.051858 17.364120 31.147657 1.867930 -3.696842 -16.425539 4.183494 -10.300029 0.000000 0.000000 0.000000 6.877622 3.445796 1.531690 -21.754480 -4.543858 -13.115415 33.443376 -3.488105 -1.641625 -15.697742 -6.236735 5.440299 0.000000 0.000000 0.000000 3.896881 -2.352935 0.810048 1.540090 2.646539 -4.040117 3.668223 -0.349168 -1.246579 1.829590 -0.382537 -0.529887 0.000000 0.000000 0.000000 4.589493 -0.806908 0.308341 1.278333 -0.030244 0.848619 0.000000 0.000000 0.000000 4.083576 0.057016 2.934666 2.026703 -5.591766 16.806949 -45.264593 -41.307611 -35.968879 5.404567 -82.996183 8.029034 0.000000 0.000000 0.000000 -0.084482 -2.776744 -1.571513 -0.129434 -3.555953 -9.274825 -27.405043 49.428190 24.575717 -173.652710 80.164865 170.984483 0.000000 0.000000 0.000000 
-1.043884 93.139664 49.441467 0.000000 0.000000 0.000000 14.595904 -12.122937 2.424106 -22.699787 9.083105 17.307062 31.070800 1.860101 -3.708535 -16.423535 4.185246 -10.333653 0.000000 0.000000 0.000000 6.992043 3.480735 1.531103 -21.564205 -4.553959 -13.100223 33.352210 -3.566802 -1.663899 -15.723895 -6.307902 5.346429 0.000000 0.000000 0.000000 3.821274 -2.428293 0.835096 1.500265 2.847843 -3.990055 3.540134 -0.377326 -1.273023 1.722294 -0.393273 -0.527463 0.000000 0.000000 0.000000 4.499512 -0.834455 0.309227 1.220885 -0.031373 0.834419 0.000000 0.000000 0.000000 4.016925 0.097194 2.919502 1.956280 -5.227517 16.562562 -44.466294 -41.400836 -36.236175 6.707588 -83.164363 9.060642 0.000000 0.000000 0.000000 -0.239210 -2.772235 -1.591304 -0.247433 -3.521287 -9.232170 -26.759978 49.038006 25.068659 -173.626796 80.249498 171.200440 0.000000 0.000000 0.000000 
-1.045613 93.192505 49.407635 0.000000 0.000000 0.000000 14.606045 -12.128861 2.404099 -22.673298 9.089520 17.278439 31.083726 1.837523 -3.718515 -16.362673 4.168232 -10.371348 0.000000 0.000000 0.000000 7.048508 3.531412 1.527413 -21.459314 -4.548403 -13.091098 33.360024 -3.636157 -1.679960 -15.680463 -6.368062 5.271470 0.000000 0.000000 0.000000 3.750470 -2.505649 0.860481 1.472720 3.043699 -3.934794 3.428650 -0.409971 -1.293899 1.620129 -0.405698 -0.520524 0.000000 0.000000 0.000000 4.422199 -0.861977 0.310322 1.168861 -0.033949 0.819715 0.000000 0.000000 0.000000 3.961047 0.129768 2.899171 1.895797 -4.896880 16.276921 -43.545823 -41.448965 -36.506863 8.032308 -83.255874 10.082829 0.000000 0.000000 0.000000 -0.376338 -2.763871 -1.605183 -0.355170 -3.473842 -9.162591 -26.002972 48.591639 25.590364 -173.544670 80.439432 171.395305 0.000000 0.000000 0.000000 
-1.045600 93.194519 49.308815 0.000000 0.000000 0.000000 14.579076 -12.161912 2.403203 -22.713000 9.075491 17.277160 31.187204 1.807213 -3.727711 -16.239630 4.138832 -10.409562 0.000000 0.000000 0.000000 7.054207 3.603951 1.518633 -21.427861 -4.527609 -13.088197 33.462695 -3.695502 -1.691053 -15.569006 -6.416074 5.213499 0.000000 0.000000 0.000000 3.680377 -2.577131 0.882605 1.449835 3.232170 -3.882689 3.330866 -0.445023 -1.308223 1.521128 -0.418807 -0.508737 0.000000 0.000000 0.000000 4.352991 -0.889881 0.314118 1.120162 -0.039209 0.805645 0.000000 0.000000 0.000000 3.909879 0.149921 2.873721 1.844991 -4.628335 15.950507 -42.513003 -41.445625 -36.790431 9.262418 -83.258490 10.979597 0.000000 0.000000 0.000000 -0.495895 -2.749217 -1.615109 -0.451817 -3.405551 -9.075290 -25.128937 48.118567 26.110765 -173.465003 80.734666 171.620237 0.000000 0.000000 0.000000 
